<?xml version="1.0" encoding="utf-8"?>
<!-- Generator: Adobe Illustrator 21.0.0, SVG Export Plug-In . SVG Version: 6.00 Build 0)  -->
<svg version="1.1" id="Layer_1" xmlns="http://www.w3.org/2000/svg" xmlns:xlink="http://www.w3.org/1999/xlink" x="0px" y="0px"
	 viewBox="0 0 32 32" style="enable-background:new 0 0 32 32;" xml:space="preserve">
<path d="M16,0C7.2,0,0,7.2,0,16s7.2,16,16,16c8.8,0,16-7.2,16-16S24.8,0,16,0z M20.9,9.8c-0.4-0.1-0.8-0.2-1.4-0.2
	c-1.4,0-2.6,1.1-2.6,2.5v0.7h2.8v3.2h-2.8V27h-3.9V16.1h-1.8v-3.2h1.8v-0.5c0-1.7,0.5-3.6,1.8-4.7c1.1-1,2.6-1.4,3.9-1.4
	c1,0,1.7,0.1,2.3,0.3L20.9,9.8z"/>
</svg>
