<?xml version="1.0" encoding="utf-8"?>
<!-- Generator: Adobe Illustrator 21.0.0, SVG Export Plug-In . SVG Version: 6.00 Build 0)  -->
<svg version="1.1" id="Layer_1" xmlns="http://www.w3.org/2000/svg" xmlns:xlink="http://www.w3.org/1999/xlink" x="0px" y="0px"
	 viewBox="0 0 32 32" style="enable-background:new 0 0 32 32;" xml:space="preserve">
<g>
	<path d="M20.8,8.4h-9c-1.7,0-3.1,1.4-3.1,3.1v9c0,1.7,1.4,3.1,3.1,3.1h9c1.7,0,3.1-1.4,3.1-3.1v-9C23.9,9.8,22.5,8.4,20.8,8.4z
		 M16.2,20.7c-2.7,0-4.9-2.2-4.9-4.9s2.2-4.9,4.9-4.9c2.7,0,4.9,2.2,4.9,4.9S18.9,20.7,16.2,20.7z"/>
	<path d="M16,0C7.2,0,0,7.2,0,16c0,8.8,7.2,16,16,16c8.8,0,16-7.2,16-16C32,7.2,24.8,0,16,0z M25.3,20.5c0,2.5-2,4.5-4.5,4.5h-9
		c-2.5,0-4.5-2-4.5-4.5v-9C7.2,9,9.2,7,11.7,7h9c2.5,0,4.5,2,4.5,4.5V20.5z"/>
	<circle cx="16.2" cy="15.8" r="3.5"/>
</g>
</svg>
