<?xml version="1.0" encoding="utf-8"?>
<!-- Generator: Adobe Illustrator 21.0.0, SVG Export Plug-In . SVG Version: 6.00 Build 0)  -->
<svg version="1.1" id="Layer_1" xmlns="http://www.w3.org/2000/svg" xmlns:xlink="http://www.w3.org/1999/xlink" x="0px" y="0px"
	 viewBox="0 0 162 33" style="enable-background:new 0 0 162 33;" xml:space="preserve">
<style type="text/css">
	.st0{fill-rule:evenodd;clip-rule:evenodd;fill:url(#SVGID_1_);}
	.st1{fill:#221E1F;}
	.st2{fill-rule:evenodd;clip-rule:evenodd;fill:#221E1F;}
</style>
<linearGradient id="SVGID_1_" gradientUnits="userSpaceOnUse" x1="144.7597" y1="69.7538" x2="144.7597" y2="34.7111" gradientTransform="matrix(1 -2.567810e-03 2.413763e-03 0.94 -127.397 -32.2263)">
	<stop  offset="0" style="stop-color:#F8AA48"/>
	<stop  offset="1" style="stop-color:#FFD22F"/>
</linearGradient>
<path class="st0" d="M5.7,0.1L29.2,0c3.1,0,5.7,2.4,5.7,5.3l0.1,22.2c0,2.9-2.6,5.4-5.7,5.4L5.8,33c-3.1,0-5.7-2.4-5.7-5.3L0,5.4
	C0,2.5,2.6,0.1,5.7,0.1z"/>
<g>
	<g>
		<polygon class="st1" points="14,13.5 13.9,20.1 15.9,20.2 15.9,11.3 13.3,11.6 9.1,15.1 5.1,12.5 2.7,12.7 2.6,19.1 4.6,19.7 
			4.6,14.4 9.2,17.5 		"/>
		<path class="st1" d="M9.1,19.7c-2.2,0-4.1,1.8-4.1,4c0,2.2,1.8,4.1,4,4.1c2.2,0,4.1-1.8,4.1-4C13.2,21.6,11.4,19.8,9.1,19.7z
			 M9.1,25.9c-1.2,0-2.1-1-2.1-2.1c0-1.2,1-2.1,2.1-2.1c1.2,0,2.1,1,2.1,2.1C11.2,25,10.3,25.9,9.1,25.9z"/>
		<polygon class="st1" points="17.8,20.2 19.7,20.2 19.8,9.5 22,9.2 29.5,8.4 28.9,6.5 23.9,7.1 22,7.3 2.7,9.4 2.7,11.4 17.8,9.7 
					"/>
		<polygon class="st1" points="14.5,21.5 13.9,21.5 14.5,23.4 19.7,23.5 20.3,21.5 19.7,21.5 		"/>
		<path class="st1" d="M31.4,15.7l-0.3-0.8l-1.5-5.1l-7.9,0.8l0,9.6l1.9-1l0-2.3l6.1,0l1.2,4l-0.7,2.7l2,0l0.7-2.7L31.4,15.7z
			 M23.6,14.9l0-2.6l4.6-0.5l0.9,3.1L23.6,14.9z"/>
		<path class="st1" d="M25.4,19.8c-2.2,0-4.1,1.8-4.1,4c0,2.2,1.8,4.1,4,4.1c2.2,0,4.1-1.8,4.1-4C29.4,21.7,27.6,19.8,25.4,19.8z
			 M25.3,26c-1.2,0-2.1-1-2.1-2.1c0-1.2,1-2.1,2.1-2.1c1.2,0,2.1,1,2.1,2.1C27.5,25.1,26.5,26,25.3,26z"/>
		<ellipse transform="matrix(4.655980e-03 -1 1 4.655980e-03 1.3518 49.1215)" class="st1" cx="25.4" cy="23.9" rx="1" ry="1"/>
		<ellipse transform="matrix(4.655980e-03 -1 1 4.655980e-03 -14.7234 32.8201)" class="st1" cx="9.1" cy="23.8" rx="1" ry="1"/>
	</g>
</g>
<g>
	<g>
		<polygon class="st2" points="40,10.2 43.1,10.2 45.6,19.3 48.2,10.2 51.1,10.2 51.2,22.8 49.2,22.8 49.2,12.1 46.2,22.8 
			44.7,22.8 41.7,12.1 41.8,22.8 40,22.8 		"/>
		<path class="st2" d="M60.4,18c0,3.3-1.2,5-3.7,5c-1.1,0-2-0.4-2.7-1.2c-0.7-0.8-1-2-1-3.7c0-3.3,1.2-4.9,3.7-4.9
			c1.1,0,2,0.4,2.7,1.2C60.1,15.2,60.4,16.4,60.4,18L60.4,18z M58.3,18.1c0-1.3-0.1-2.2-0.4-2.7c-0.3-0.5-0.7-0.7-1.2-0.7
			c-1.1,0-1.6,1.1-1.6,3.4c0,1.2,0.1,2,0.4,2.6c0.3,0.6,0.7,0.8,1.2,0.8c0.6,0,1-0.3,1.2-0.9C58.2,20.2,58.4,19.3,58.3,18.1z"/>
		<path class="st2" d="M68.7,16.6l-1.9,0.2c-0.1-0.8-0.2-1.3-0.5-1.6c-0.2-0.3-0.5-0.4-0.9-0.4c-0.6,0-1,0.3-1.2,0.8
			c-0.3,0.5-0.4,1.5-0.4,2.8c0,2.1,0.6,3.1,1.6,3.1c0.8,0,1.3-0.7,1.4-2l1.9,0.2c-0.2,2.3-1.4,3.4-3.4,3.5c-1.2,0-2.1-0.4-2.7-1.3
			c-0.6-0.9-0.9-2.1-0.9-3.6c0-1.6,0.3-2.8,0.9-3.7c0.6-0.8,1.5-1.3,2.7-1.3C67.3,13.2,68.4,14.4,68.7,16.6z"/>
		<polygon class="st2" points="68.5,10.2 76.2,10.2 76.2,11.9 73.4,11.9 73.4,22.8 71.3,22.8 71.3,11.9 68.5,12 		"/>
		<path class="st2" d="M76.4,13.5l1.8,0l0,1.5c0.5-1.1,1.2-1.7,2.3-1.7c0.9,0,1.7,0.4,2.3,1.2c0.6,0.8,0.9,2,0.9,3.5
			c0,1.4-0.3,2.5-0.8,3.5c-0.5,1-1.3,1.4-2.4,1.4c-0.9,0-1.6-0.4-2.1-1.1l0,4.1l-1.9,0L76.4,13.5L76.4,13.5z M78.3,18.9
			c0,0.6,0,1.1,0.1,1.4c0.1,0.3,0.3,0.6,0.5,0.9c0.3,0.2,0.6,0.4,0.9,0.4c1.1,0,1.6-1.2,1.6-3.5c0-2.2-0.5-3.3-1.6-3.3
			c-0.5,0-0.9,0.2-1.2,0.7c-0.3,0.5-0.5,1.1-0.5,1.9L78.3,18.9z"/>
		<path class="st2" d="M87.1,16.1l-1.9-0.2c0.1-0.8,0.5-1.5,1.1-1.9c0.6-0.5,1.4-0.7,2.4-0.7c0.8,0,1.5,0.2,2,0.5
			c0.5,0.3,0.8,0.7,0.9,1.2c0.1,0.5,0.2,1.2,0.2,2.1l0,3.2c0,1.3,0.1,2.1,0.2,2.6l-1.8,0c-0.1-0.3-0.1-0.9-0.1-1.6
			c-0.6,1.2-1.5,1.8-2.6,1.8c-0.8,0-1.4-0.2-1.9-0.7c-0.5-0.5-0.7-1.1-0.7-2c0-1,0.3-1.8,1-2.4c0.7-0.6,1.9-0.9,3.6-0.9
			c0.1,0,0.2,0,0.4,0l0-0.4c0-0.7-0.1-1.2-0.3-1.5c-0.2-0.3-0.6-0.5-1.1-0.5C87.8,14.6,87.3,15.1,87.1,16.1L87.1,16.1z M90,18.2
			c-0.2,0-0.4,0-0.6,0c-1.7,0-2.5,0.7-2.5,2c0,0.9,0.4,1.4,1.2,1.4c0.5,0,0.9-0.3,1.3-0.8c0.4-0.5,0.5-1.2,0.5-2.1L90,18.2z"/>
		<polygon class="st2" points="94.1,22.8 94.1,13.4 96,13.4 96,17.1 98.8,17.1 98.8,13.4 100.7,13.4 100.8,22.7 98.8,22.7 
			98.8,18.6 96,18.6 96,22.8 		"/>
		<path class="st2" d="M109.5,16.5l-1.9,0.2c-0.1-0.8-0.3-1.3-0.5-1.6c-0.2-0.3-0.5-0.4-0.9-0.4c-0.6,0-1,0.3-1.2,0.8
			c-0.3,0.5-0.4,1.5-0.4,2.8c0,2.1,0.5,3.1,1.6,3.1c0.8,0,1.3-0.7,1.4-2l1.9,0.2c-0.2,2.3-1.4,3.4-3.4,3.5c-1.2,0-2.1-0.4-2.7-1.3
			c-0.6-0.9-0.9-2.1-0.9-3.6c0-1.6,0.3-2.8,0.9-3.7c0.6-0.8,1.5-1.3,2.7-1.3C108.1,13.2,109.2,14.3,109.5,16.5z"/>
		<path class="st2" d="M113.5,10.1l2.4,0l3.4,12.6l-2.1,0l-0.8-3.2l-3.7,0l-0.8,3.2l-2,0L113.5,10.1L113.5,10.1z M115.9,17.9
			l-1.5-5.8l-1.4,5.8L115.9,17.9z"/>
		<path class="st2" d="M120.4,13.4l1.8,0l0,1.5c0.5-1.1,1.2-1.7,2.3-1.7c0.9,0,1.7,0.4,2.3,1.2c0.6,0.8,0.9,2,0.9,3.5
			c0,1.4-0.3,2.5-0.8,3.5c-0.5,1-1.3,1.4-2.4,1.4c-0.9,0-1.6-0.4-2.1-1.1l0,4.1l-1.9,0L120.4,13.4L120.4,13.4z M122.4,18.8
			c0,0.6,0,1.1,0.1,1.4c0.1,0.3,0.3,0.6,0.5,0.9c0.3,0.2,0.6,0.4,0.9,0.4c1.1,0,1.6-1.2,1.6-3.5c0-2.2-0.5-3.3-1.6-3.3
			c-0.5,0-0.9,0.2-1.2,0.7c-0.3,0.5-0.5,1.1-0.5,1.9L122.4,18.8z"/>
		<path class="st2" d="M136.2,18.3l-5.3,0c0,1.3,0.2,2.1,0.5,2.5c0.3,0.4,0.8,0.6,1.3,0.6c0.9,0,1.4-0.6,1.6-1.7l1.8,0.2
			c-0.5,2-1.6,3-3.5,3c-1.1,0-2-0.4-2.7-1.2c-0.7-0.8-1-2-1-3.5c0-1.6,0.3-2.8,1-3.7c0.7-0.9,1.6-1.3,2.7-1.3c0.8,0,1.5,0.2,2,0.7
			c0.5,0.4,0.9,1,1.2,1.7C136.1,16.2,136.2,17.2,136.2,18.3L136.2,18.3z M134.3,17c0-1.6-0.5-2.5-1.6-2.5c-1,0-1.6,0.8-1.7,2.5
			L134.3,17z"/>
		<polygon class="st2" points="137.8,22.7 137.8,13.4 139.7,13.4 139.7,17.1 142.5,17.1 142.5,13.4 144.5,13.4 144.5,22.7 
			142.5,22.7 142.5,18.5 139.8,18.5 139.8,22.7 		"/>
		<path class="st2" d="M146.9,21.2l1.9-7.9l2.9,0l1.7,7.9l0.7,0l0,3.6l-1.3,0l-0.2-2.2l-4.8,0l-0.2,2.2l-1.3,0l0-3.6L146.9,21.2
			L146.9,21.2z M148.6,21.2l2.8,0l-1.3-6.4l-0.3,0L148.6,21.2z"/>
		<path class="st2" d="M157,16l-1.9-0.2c0.1-0.8,0.5-1.5,1.1-1.9c0.6-0.5,1.4-0.7,2.4-0.7c0.8,0,1.5,0.2,2,0.5
			c0.5,0.3,0.8,0.7,0.9,1.2c0.1,0.5,0.2,1.2,0.2,2.1l0,3.2c0,1.3,0.1,2.1,0.2,2.6l-1.8,0c-0.1-0.3-0.1-0.9-0.1-1.6
			c-0.6,1.2-1.5,1.8-2.6,1.8c-0.8,0-1.4-0.2-1.9-0.7c-0.5-0.5-0.7-1.1-0.7-2c0-1,0.3-1.8,1-2.4c0.7-0.6,1.9-0.9,3.6-0.9
			c0.1,0,0.2,0,0.4,0l0-0.4c0-0.7-0.1-1.2-0.3-1.5c-0.2-0.3-0.6-0.5-1.1-0.5C157.7,14.5,157.2,15,157,16L157,16z M159.9,18.1
			c-0.2,0-0.4,0-0.6,0c-1.7,0-2.5,0.7-2.5,2c0,0.9,0.4,1.4,1.2,1.4c0.5,0,0.9-0.3,1.3-0.8c0.4-0.5,0.5-1.2,0.5-2.1L159.9,18.1z"/>
	</g>
</g>
</svg>
