<?xml version="1.0" encoding="UTF-8"?>
<!DOCTYPE svg PUBLIC "-//W3C//DTD SVG 1.1//EN" "http://www.w3.org/Graphics/SVG/1.1/DTD/svg11.dtd">
<!-- Creator: CorelDRAW X7 -->
<svg xmlns="http://www.w3.org/2000/svg" xml:space="preserve" width="66.7057mm" height="66.6743mm" version="1.1" style="shape-rendering:geometricPrecision; text-rendering:geometricPrecision; image-rendering:optimizeQuality; fill-rule:evenodd; clip-rule:evenodd"
viewBox="0 0 5989 5986"
 xmlns:xlink="http://www.w3.org/1999/xlink">
 <defs>
  <style type="text/css">
   <![CDATA[
    .fil0 {fill:#FDC43B}
   ]]>
  </style>
 </defs>
 <g id="Слой_x0020_1">
  <metadata id="CorelCorpID_0Corel-Layer"/>
  <path class="fil0" d="M1907 2783c83,475 433,852 807,1087 163,102 267,138 453,197 135,-93 225,-286 506,-282 112,2 572,125 658,179 483,307 142,814 -136,985 -373,230 -1450,-156 -1888,-452 -144,-97 -349,-265 -455,-368 -205,-200 -500,-600 -649,-964 -112,-274 -345,-1045 -206,-1350 44,-98 312,-354 425,-396 520,-192 722,468 757,831 27,275 -143,428 -272,533zm1953 -661c182,183 363,495 349,876l-255 1c-87,-644 -326,-858 -960,-965l-1 -248c346,-49 709,177 867,336zm301 -333c-230,-215 -502,-371 -837,-432 -439,-82 -273,13 -333,-94l-1 -204c310,10 588,70 836,180 621,274 1127,997 1099,1755l-257 -2c-47,-558 -213,-928 -507,-1203zm-4149 1469c137,1554 1506,2876 3247,2714 1549,-144 2878,-1501 2716,-3234 -146,-1563 -1498,-2875 -3231,-2726 -1570,135 -2885,1505 -2732,3246z"/>
 </g>
</svg>
