<?xml version="1.0" encoding="utf-8"?>
<!-- Generator: Adobe Illustrator 21.0.0, SVG Export Plug-In . SVG Version: 6.00 Build 0)  -->
<svg version="1.1" id="Layer_1" xmlns="http://www.w3.org/2000/svg" xmlns:xlink="http://www.w3.org/1999/xlink" x="0px" y="0px"
	 viewBox="0 0 32 32" style="enable-background:new 0 0 32 32;" xml:space="preserve">
<g>
	<path d="M11.9,17.4c-0.2,0.1-0.3,0.4-0.2,0.6l0.7,2.6c0.1,0.2,0.2,0.2,0.2,0l0.5-1.8c0.1-0.2,0.3-0.5,0.4-0.7l6.7-5.9
		c0.2-0.1,0.1-0.2,0-0.1L11.9,17.4z"/>
	<path d="M16,0C7.2,0,0,7.2,0,16s7.2,16,16,16c8.8,0,16-7.2,16-16S24.8,0,16,0z M23.3,9.9l-2.7,13.7c-0.1,0.3-0.3,0.4-0.6,0.2
		l-4-2.7c-0.2-0.2-0.6-0.1-0.9,0l-2.5,2c-0.2,0.2-0.5,0.1-0.6-0.2l-1.3-4.6c-0.1-0.3-0.4-0.6-0.7-0.7l-4-1.4C6,16.2,6,16,6.3,15.9
		l16.6-6.4C23.2,9.5,23.4,9.6,23.3,9.9z"/>
</g>
</svg>
