<?xml version="1.0" encoding="utf-8"?>
<!-- Generator: Adobe Illustrator 21.0.0, SVG Export Plug-In . SVG Version: 6.00 Build 0)  -->
<svg version="1.1" id="Layer_1" xmlns="http://www.w3.org/2000/svg" xmlns:xlink="http://www.w3.org/1999/xlink" x="0px" y="0px"
	 viewBox="0 0 32 32" style="enable-background:new 0 0 32 32;" xml:space="preserve">
<g>
	<path d="M16,7.1c-4.5,0-8.2,3.7-8.2,8.2c0,1.6,0.5,3.1,1.3,4.4c0.1,0.2,0.2,0.5,0.1,0.7v0l-0.9,2.6l2.7-0.8c0.2-0.1,0.5,0,0.7,0.1
		c1.3,0.8,2.7,1.2,4.2,1.2c4.5,0,8.2-3.7,8.2-8.2C24.2,10.7,20.5,7.1,16,7.1z M21,18.7C21,18.7,21,18.7,21,18.7c0,0.1,0,0.1,0,0.2
		c0,0.1-0.1,0.2-0.2,0.3c-0.4,0.4-1.3,1.6-3.8,0.5c-2.5-1-3.8-2.4-5.3-4.9c-1.3-2.4-0.1-3.7,0.5-4.1c0.1-0.1,0.3-0.2,0.5-0.2l0.7,0
		c0.2,0,0.3,0.1,0.4,0.3l0.8,2.1c0.1,0.2,0,0.4-0.1,0.6l-0.7,0.8c-0.1,0.1-0.1,0.2,0,0.3c0.1,0.3,0.5,1,1.5,2c1.1,0.9,1.6,1.2,2,1.3
		c0.1,0,0.3,0.1,0.4-0.1l0.7-0.8c0.2-0.3,0.3-0.5,0.7-0.3l2,1c0.2,0.1,0.2,0.3,0.2,0.4L21,18.7z"/>
	<path d="M16,0C7.2,0,0,7.2,0,16s7.2,16,16,16s16-7.2,16-16S24.8,0,16,0z M16,25c-1.7,0-3.3-0.4-4.8-1.2l-5.4,1.7l1.8-5.3
		c-0.9-1.5-1.4-3.2-1.4-5c0-5.4,4.4-9.8,9.8-9.8s9.8,4.4,9.8,9.8C25.9,20.6,21.5,25,16,25z"/>
</g>
</svg>
